<?xml version="1.0"?>
<svg xmlns="http://www.w3.org/2000/svg" xmlns:xlink="http://www.w3.org/1999/xlink" version="1.1" viewBox="0 0 192 192" width="96px" height="96px"><g fill="none" fill-rule="nonzero" stroke="none" stroke-width="1" stroke-linecap="butt" stroke-linejoin="miter" stroke-miterlimit="10" stroke-dasharray="" stroke-dashoffset="0" font-family="none" font-weight="none" font-size="none" text-anchor="none" style="mix-blend-mode: normal"><path d="M0,192v-192h192v192z" fill="none"/><g fill="#ffffff"><path d="M83.92187,16c-3.832,0 -7.10775,2.70875 -7.84375,6.46875l-2.67188,13.71875c-6.56607,2.48291 -12.63742,5.95173 -17.96875,10.32812l-13.15625,-4.53125c-3.624,-1.248 -7.61125,0.2505 -9.53125,3.5625l-12.0625,20.90625c-1.912,3.32 -1.21612,7.53488 1.67188,10.04688l10.54687,9.17187c-0.5485,3.37082 -0.90625,6.8024 -0.90625,10.32813c0,3.52573 0.35774,6.9573 0.90625,10.32813l-10.54687,9.17187c-2.888,2.512 -3.58388,6.72687 -1.67188,10.04687l12.0625,20.90626c1.912,3.32 5.90725,4.81812 9.53125,3.57812l13.15625,-4.53125c5.32957,4.37365 11.40565,7.83071 17.96875,10.3125l2.67188,13.71875c0.736,3.76 4.01175,6.46875 7.84375,6.46875h24.15626c3.832,0 7.10774,-2.70875 7.84374,-6.46875l2.67188,-13.71875c6.56607,-2.4829 12.63742,-5.95173 17.96874,-10.32812l13.15626,4.53125c3.624,1.248 7.61125,-0.2425 9.53125,-3.5625l12.0625,-20.92188c1.91201,-3.32 1.21613,-7.51925 -1.67187,-10.03125l-10.54687,-9.17187c0.5485,-3.37082 0.90625,-6.8024 0.90625,-10.32813c0,-3.52573 -0.35774,-6.9573 -0.90625,-10.32813l10.54687,-9.17187c2.888,-2.512 3.58388,-6.72688 1.67187,-10.04688l-12.0625,-20.90625c-1.912,-3.32 -5.90725,-4.81813 -9.53125,-3.57812l-13.15626,4.53125c-5.32957,-4.37365 -11.40564,-7.83071 -17.96874,-10.3125l-2.67188,-13.71875c-0.736,-3.76 -4.01174,-6.46875 -7.84374,-6.46875zM96,64c17.672,0 32,14.328 32,32c0,17.672 -14.328,32 -32,32c-17.672,0 -32,-14.328 -32,-32c0,-17.672 14.328,-32 32,-32z"/></g></g></svg>
